<?xml version="1.0" encoding="UTF-8"?>
<svg width="120" height="32" viewBox="0 0 120 32" fill="none" xmlns="http://www.w3.org/2000/svg">
  <g fill="#006CE4">
    <path d="M35.4 24h-3.6l-6.3-17.4h3.7l4.4 13.2 4.4-13.2h3.7L35.4 24zM47.2 24.4c-2 0-3.6-.5-4.9-1.6-1.3-1-2-2.5-2-4.2 0-1.8.7-3.2 2-4.3 1.3-1 3-1.6 4.9-1.6 2 0 3.6.5 4.9 1.6 1.3 1 2 2.5 2 4.3 0 1.7-.7 3.1-2 4.2-1.3 1.1-2.9 1.6-4.9 1.6zm0-2.8c1.1 0 2-.3 2.7-.9.7-.6 1.1-1.3 1.1-2.1s-.4-1.5-1.1-2.1c-.7-.6-1.6-.9-2.7-.9s-2 .3-2.7.9c-.7.6-1.1 1.3-1.1 2.1s.4 1.5 1.1 2.1c.7.6 1.6.9 2.7.9zM63.4 24v-1.2c-1.1 1.1-2.5 1.6-4.2 1.6-1.4 0-2.6-.4-3.6-1.3-1-.9-1.5-2-1.5-3.3 0-1.3.5-2.4 1.5-3.3 1-.9 2.2-1.3 3.6-1.3 1.7 0 3.1.5 4.2 1.6v-1.2c0-.7-.3-1.2-.9-1.7-.6-.5-1.3-.7-2.1-.7-1.4 0-2.5.6-3.3 1.8l-2.4-1.6c1.3-2 3.2-3 5.7-3 1.7 0 3.1.5 4.2 1.4 1.1.9 1.6 2.2 1.6 3.8V24h-2.8zm-3.2-2c1 0 1.8-.3 2.4-.9.6-.6.9-1.3.9-2.1 0-.8-.3-1.5-.9-2.1-.6-.6-1.4-.9-2.4-.9s-1.8.3-2.4.9c-.6.6-.9 1.3-.9 2.1 0 .8.3 1.5.9 2.1.6.6 1.4.9 2.4.9zM75.8 24v-1.2c-.9 1.1-2.2 1.6-3.8 1.6-1.4 0-2.6-.5-3.6-1.4-1-.9-1.5-2.1-1.5-3.6v-8.6h2.8v8c0 .9.3 1.7.9 2.3.6.6 1.4.9 2.4.9s1.8-.3 2.4-.9c.6-.6.9-1.4.9-2.3v-8h2.8V24h-3.3z"/>
    <path fillRule="evenodd" clipRule="evenodd" d="M24 16c0 4.4-3.6 8-8 8s-8-3.6-8-8 3.6-8 8-8 8 3.6 8 8zm-8-12c6.6 0 12 5.4 12 12s-5.4 12-12 12S4 22.6 4 16 9.4 4 16 4z"/>
    <path d="M16 19c1.7 0 3-1.3 3-3s-1.3-3-3-3-3 1.3-3 3 1.3 3 3 3z"/>
  </g>
</svg>
